<svg width="18" height="18" viewBox="0 0 18 18" fill="none" xmlns="http://www.w3.org/2000/svg">
<circle cx="9" cy="9" r="9" fill="#787880" fill-opacity="0.36"/>
<path d="M5.83594 12.1535H6.3L11.2781 7.18594L10.8141 6.72188L5.83594 11.6895V12.1535ZM5.51953 12.7863C5.42812 12.7863 5.35254 12.7564 5.29277 12.6967C5.23301 12.6369 5.20312 12.5613 5.20312 12.4699V11.7C5.20312 11.6156 5.2207 11.533 5.25586 11.4521C5.29102 11.3713 5.33672 11.3027 5.39297 11.2465L11.2676 5.38242C11.3238 5.32617 11.3906 5.28223 11.468 5.25059C11.5453 5.21895 11.6262 5.20312 11.7105 5.20312C11.7879 5.20312 11.8652 5.21895 11.9426 5.25059C12.0199 5.28223 12.0902 5.32617 12.1535 5.38242L12.6176 5.84648C12.6809 5.90977 12.7266 5.98008 12.7547 6.05742C12.7828 6.13477 12.7969 6.21211 12.7969 6.28945C12.7969 6.3668 12.7811 6.4459 12.7494 6.52676C12.7178 6.60762 12.6738 6.67617 12.6176 6.73242L6.74297 12.5965C6.68672 12.6527 6.61816 12.6984 6.5373 12.7336C6.45645 12.7688 6.37383 12.7863 6.28945 12.7863H5.51953ZM11.0461 6.95391L10.8141 6.72188L11.2781 7.18594L11.0461 6.95391Z" fill="white"/>
</svg>
