<svg width="24" height="24" viewBox="0 0 24 24" fill="none" xmlns="http://www.w3.org/2000/svg">
<path d="M4.95 16.5746C3.95 15.6079 3.20833 14.4996 2.725 13.2496C2.24167 11.9996 2 10.7579 2 9.52461C2 8.29128 2.24167 7.04961 2.725 5.79961C3.20833 4.54961 3.95 3.44128 4.95 2.47461L5.825 3.34961C4.99167 4.16628 4.35417 5.13711 3.9125 6.26211C3.47083 7.38711 3.25 8.47461 3.25 9.52461C3.25 10.5746 3.47083 11.6621 3.9125 12.7871C4.35417 13.9121 4.99167 14.8829 5.825 15.6996L4.95 16.5746ZM7.25 14.2746C6.58333 13.6579 6.09167 12.9121 5.775 12.0371C5.45833 11.1621 5.3 10.3246 5.3 9.52461C5.3 8.72461 5.45833 7.88711 5.775 7.01211C6.09167 6.13711 6.58333 5.39128 7.25 4.77461L8.125 5.64961C7.64167 6.13294 7.25833 6.73711 6.975 7.46211C6.69167 8.18711 6.55 8.87461 6.55 9.52461C6.55 10.1079 6.69583 10.7704 6.9875 11.5121C7.27917 12.2538 7.65833 12.8829 8.125 13.3996L7.25 14.2746ZM7.35 21.5246L10.675 11.3996C10.3917 11.1996 10.1625 10.9413 9.9875 10.6246C9.8125 10.3079 9.725 9.94128 9.725 9.52461C9.725 8.89128 9.94583 8.35378 10.3875 7.91211C10.8292 7.47044 11.3667 7.24961 12 7.24961C12.6333 7.24961 13.1708 7.47044 13.6125 7.91211C14.0542 8.35378 14.275 8.89128 14.275 9.52461C14.275 9.94128 14.1875 10.3079 14.0125 10.6246C13.8375 10.9413 13.6083 11.1996 13.325 11.3996L16.65 21.5246H15.175L14.45 19.2746H9.575L8.825 21.5246H7.35ZM10.05 17.7746H13.95L12 11.8246L10.05 17.7746ZM16.75 14.2746L15.875 13.3996C16.3583 12.9163 16.7417 12.3121 17.025 11.5871C17.3083 10.8621 17.45 10.1746 17.45 9.52461C17.45 8.94128 17.3042 8.27878 17.0125 7.53711C16.7208 6.79544 16.3417 6.16628 15.875 5.64961L16.75 4.77461C17.4 5.39128 17.8875 6.13711 18.2125 7.01211C18.5375 7.88711 18.7 8.72461 18.7 9.52461C18.7 10.3079 18.5375 11.1413 18.2125 12.0246C17.8875 12.9079 17.4 13.6579 16.75 14.2746ZM19.05 16.5746L18.175 15.6996C18.9917 14.8829 19.625 13.9121 20.075 12.7871C20.525 11.6621 20.75 10.5746 20.75 9.52461C20.75 8.47461 20.525 7.38711 20.075 6.26211C19.625 5.13711 18.9917 4.16628 18.175 3.34961L19.05 2.47461C20.05 3.44128 20.7917 4.54961 21.275 5.79961C21.7583 7.04961 22 8.29128 22 9.52461C22 10.7746 21.7708 12.0204 21.3125 13.2621C20.8542 14.5038 20.1 15.6079 19.05 16.5746Z" fill="white"/>
</svg>
