<svg width="24" height="24" viewBox="0 0 24 24" fill="none" xmlns="http://www.w3.org/2000/svg">
<path d="M3.90707 22C3.48602 22 3.1176 21.8421 2.80181 21.5263C2.48602 21.2105 2.32812 20.8421 2.32812 20.4211V15.0526C2.32812 14.6316 2.48602 14.2632 2.80181 13.9474C3.1176 13.6316 3.48602 13.4737 3.90707 13.4737H15.3808V8.84211H16.9597V13.4737H19.6965C20.1176 13.4737 20.486 13.6316 20.8018 13.9474C21.1176 14.2632 21.2755 14.6316 21.2755 15.0526V20.4211C21.2755 20.8421 21.1176 21.2105 20.8018 21.5263C20.486 21.8421 20.1176 22 19.6965 22H3.90707ZM3.90707 20.4211H19.6965V15.0526H3.90707V20.4211ZM6.59418 18.8421C6.90804 18.8421 7.17023 18.7359 7.38076 18.5234C7.59128 18.3111 7.69655 18.048 7.69655 17.7339C7.69655 17.4201 7.59032 17.1579 7.37786 16.9474C7.16558 16.7368 6.90242 16.6316 6.58839 16.6316C6.27453 16.6316 6.01234 16.7378 5.80181 16.9503C5.59128 17.1625 5.48602 17.4257 5.48602 17.7397C5.48602 18.0536 5.59225 18.3158 5.8047 18.5263C6.01698 18.7368 6.28014 18.8421 6.59418 18.8421ZM10.4889 18.8421C10.8028 18.8421 11.065 18.7359 11.2755 18.5234C11.486 18.3111 11.5913 18.048 11.5913 17.7339C11.5913 17.4201 11.4851 17.1579 11.2726 16.9474C11.0603 16.7368 10.7972 16.6316 10.4831 16.6316C10.1693 16.6316 9.90707 16.7378 9.69655 16.9503C9.48602 17.1625 9.38076 17.4257 9.38076 17.7397C9.38076 18.0536 9.48698 18.3158 9.69944 18.5263C9.91172 18.7368 10.1749 18.8421 10.4889 18.8421ZM14.3837 18.8421C14.6975 18.8421 14.9597 18.7359 15.1702 18.5234C15.3808 18.3111 15.486 18.048 15.486 17.7339C15.486 17.4201 15.3798 17.1579 15.1673 16.9474C14.9551 16.7368 14.6919 16.6316 14.3779 16.6316C14.064 16.6316 13.8018 16.7378 13.5913 16.9503C13.3808 17.1625 13.2755 17.4257 13.2755 17.7397C13.2755 18.0536 13.3817 18.3158 13.5942 18.5263C13.8065 18.7368 14.0696 18.8421 14.3837 18.8421ZM14.065 7.60526L12.986 6.52632C13.4071 6.10526 13.8845 5.77193 14.4184 5.52632C14.9522 5.2807 15.5362 5.15789 16.1702 5.15789C16.8043 5.15789 17.3882 5.2807 17.9221 5.52632C18.4559 5.77193 18.9334 6.10526 19.3544 6.52632L18.2755 7.60526C18.0299 7.35965 17.7229 7.15351 17.3544 6.98684C16.986 6.82018 16.5957 6.73684 16.1834 6.73684C15.7711 6.73684 15.3764 6.82018 14.9992 6.98684C14.622 7.15351 14.3106 7.35965 14.065 7.60526ZM11.8281 5.36842L10.6702 4.21053C11.2492 3.63158 12.0211 3.11842 12.986 2.67105C13.9509 2.22368 15.0123 2 16.1702 2C17.3281 2 18.3895 2.22368 19.3544 2.67105C20.3194 3.11842 21.0913 3.63158 21.6702 4.21053L20.5123 5.36842C20.0562 4.85965 19.4553 4.43421 18.7097 4.09211C17.9641 3.75 17.1176 3.57895 16.1702 3.57895C15.2229 3.57895 14.3764 3.75 13.6308 4.09211C12.8851 4.43421 12.2843 4.85965 11.8281 5.36842Z" fill="white"/>
</svg>
