<svg width="24" height="24" viewBox="0 0 24 24" fill="none" xmlns="http://www.w3.org/2000/svg">
<path d="M5.52411 15.3637C5.22004 14.8164 5.00719 14.2653 4.88557 13.7104C4.76394 13.1555 4.70312 12.5891 4.70312 12.0114C4.70312 10.0198 5.42148 8.30559 6.8582 6.86887C8.29492 5.43215 10.0091 4.7138 12.0007 4.7138H12.9813L11.1569 2.8894L12.0463 2L15.4443 5.39795L12.0463 8.79589L11.1341 7.88369L12.9357 6.0821H12.0007C10.374 6.0821 8.97907 6.66363 7.81601 7.82668C6.65295 8.98974 6.07143 10.3846 6.07143 12.0114C6.07143 12.4523 6.11324 12.8704 6.19685 13.2657C6.28047 13.661 6.38309 14.0334 6.50472 14.3831L5.52411 15.3637ZM11.9095 22L8.51156 18.6021L11.9095 15.2041L12.7989 16.0935L10.9745 17.9179H12.0007C13.6275 17.9179 15.0224 17.3364 16.1855 16.1733C17.3485 15.0103 17.93 13.6154 17.93 11.9886C17.93 11.5477 17.892 11.1296 17.816 10.7343C17.74 10.339 17.626 9.96655 17.4739 9.61688L18.4545 8.63626C18.7586 9.18358 18.9753 9.7347 19.1045 10.2896C19.2337 10.8445 19.2983 11.4109 19.2983 11.9886C19.2983 13.9802 18.58 15.6944 17.1433 17.1311C15.7065 18.5678 13.9924 19.2862 12.0007 19.2862H10.9745L12.7989 21.1106L11.9095 22Z" fill="white"/>
</svg>
