<svg width="24" height="24" viewBox="0 0 24 24" fill="none" xmlns="http://www.w3.org/2000/svg">
<path d="M12 20.3333C14.3148 20.3333 16.2824 19.5231 17.9028 17.9028C19.5231 16.2824 20.3333 14.3148 20.3333 12V3.66667H12C9.68519 3.66667 7.71759 4.47685 6.09722 6.09722C4.47685 7.71759 3.66667 9.68519 3.66667 12C3.66667 14.3148 4.47685 16.2824 6.09722 17.9028C7.71759 19.5231 9.68519 20.3333 12 20.3333ZM10.5278 17.4167L16.2778 12.2778C16.463 12.1111 16.5185 11.912 16.4444 11.6806C16.3704 11.4491 16.2037 11.3148 15.9444 11.2778L11.4444 10.8333L14.1389 7.13889C14.213 7.0463 14.2454 6.94907 14.2361 6.84722C14.2269 6.74537 14.1852 6.64815 14.1111 6.55556C14.0185 6.46296 13.912 6.41667 13.7917 6.41667C13.6713 6.41667 13.5648 6.46296 13.4722 6.55556L7.75 11.6944C7.56481 11.8611 7.50926 12.0602 7.58333 12.2917C7.65741 12.5231 7.82407 12.6574 8.08333 12.6944L12.5833 13.1389L9.86111 16.8333C9.78704 16.9259 9.75463 17.0231 9.76389 17.125C9.77315 17.2269 9.82407 17.3241 9.91667 17.4167C10.0093 17.5093 10.1111 17.5556 10.2222 17.5556C10.3333 17.5556 10.4352 17.5093 10.5278 17.4167ZM12 22C10.7593 22 9.59259 21.7917 8.5 21.375C7.40741 20.9583 6.41667 20.3796 5.52778 19.6389L3.41667 21.75C3.32407 21.8426 3.23148 21.9074 3.13889 21.9444C3.0463 21.9815 2.94444 22 2.83333 22C2.61111 22 2.41667 21.9167 2.25 21.75C2.08333 21.5833 2 21.3889 2 21.1667C2 21.0556 2.01852 20.9537 2.05556 20.8611C2.09259 20.7685 2.15741 20.6759 2.25 20.5833L4.36111 18.4722C3.62037 17.5833 3.04167 16.5926 2.625 15.5C2.20833 14.4074 2 13.2407 2 12C2 9.22222 2.97222 6.86111 4.91667 4.91667C6.86111 2.97222 9.22222 2 12 2H22V12C22 14.7778 21.0278 17.1389 19.0833 19.0833C17.1389 21.0278 14.7778 22 12 22Z" fill="white"/>
</svg>
