<svg width="24" height="25" viewBox="0 0 24 25" fill="none" xmlns="http://www.w3.org/2000/svg">
<path d="M3.5 22.8574C3.1 22.8574 2.75 22.7074 2.45 22.4074C2.15 22.1074 2 21.7574 2 21.3574V10.3574C2 9.95742 2.15 9.60742 2.45 9.30742C2.75 9.00742 3.1 8.85742 3.5 8.85742H20.5C20.9 8.85742 21.25 9.00742 21.55 9.30742C21.85 9.60742 22 9.95742 22 10.3574V21.3574C22 21.7574 21.85 22.1074 21.55 22.4074C21.25 22.7074 20.9 22.8574 20.5 22.8574H3.5ZM3.5 21.3574H20.5V10.3574H3.5V21.3574ZM10.175 19.5824L15.7 15.8574L10.175 12.1574V19.5824ZM3.725 7.35742V5.85742H20.275V7.35742H3.725ZM7 4.35742V2.85742H17V4.35742H7Z" fill="white"/>
</svg>
