<svg width="24" height="25" viewBox="0 0 24 25" fill="none" xmlns="http://www.w3.org/2000/svg">
<path d="M9.73996 13.2854L10.5971 10.5473L8.33519 8.78544H11.0971L12.0019 5.9521L12.8828 8.78544H15.6685L13.4066 10.5473L14.24 13.2854L12.0019 11.595L9.73996 13.2854ZM6.38281 22.1426V14.9045C5.66853 14.1585 5.15662 13.341 4.8471 12.4521C4.53757 11.5632 4.38281 10.6664 4.38281 9.76163C4.38281 7.6029 5.11297 5.79337 6.57329 4.33305C8.03361 2.87274 9.84313 2.14258 12.0019 2.14258C14.1606 2.14258 15.9701 2.87274 17.4304 4.33305C18.8907 5.79337 19.6209 7.6029 19.6209 9.76163C19.6209 10.6664 19.4661 11.5632 19.1566 12.4521C18.8471 13.341 18.3352 14.1585 17.6209 14.9045V22.1426L12.0019 20.2616L6.38281 22.1426ZM12.0019 15.9521C13.732 15.9521 15.1963 15.3529 16.3947 14.1545C17.5931 12.9561 18.1923 11.4918 18.1923 9.76163C18.1923 8.03147 17.5931 6.56718 16.3947 5.36877C15.1963 4.17036 13.732 3.57115 12.0019 3.57115C10.2717 3.57115 8.80742 4.17036 7.609 5.36877C6.41059 6.56718 5.81138 8.03147 5.81138 9.76163C5.81138 11.4918 6.41059 12.9561 7.609 14.1545C8.80742 15.3529 10.2717 15.9521 12.0019 15.9521ZM7.81138 20.1426L12.0019 18.8331L16.1923 20.1426V16.0711C15.5574 16.5315 14.8749 16.8648 14.1447 17.0711C13.4146 17.2775 12.7003 17.3807 12.0019 17.3807C11.3034 17.3807 10.5892 17.2775 9.859 17.0711C9.12884 16.8648 8.4463 16.5315 7.81138 16.0711V20.1426Z" fill="white"/>
</svg>
