<svg width="24" height="24" viewBox="0 0 24 24" fill="none" xmlns="http://www.w3.org/2000/svg">
<path d="M4.2465 11.25C3.6155 11.25 3.08333 11.0322 2.65 10.5965C2.21667 10.1608 2 9.6275 2 8.9965C2 8.3655 2.21783 7.83333 2.6535 7.4C3.08917 6.96667 3.6225 6.75 4.2535 6.75C4.8845 6.75 5.41667 6.96783 5.85 7.4035C6.28333 7.83917 6.5 8.3725 6.5 9.0035C6.5 9.6345 6.28217 10.1667 5.8465 10.6C5.41083 11.0333 4.8775 11.25 4.2465 11.25ZM8.8715 7C8.2405 7 7.70833 6.78217 7.275 6.3465C6.84167 5.91083 6.625 5.3775 6.625 4.7465C6.625 4.1155 6.84283 3.58333 7.2785 3.15C7.71417 2.71667 8.2475 2.5 8.8785 2.5C9.5095 2.5 10.0417 2.71783 10.475 3.1535C10.9083 3.58917 11.125 4.1225 11.125 4.7535C11.125 5.3845 10.9072 5.91667 10.4715 6.35C10.0358 6.78333 9.5025 7 8.8715 7ZM15.1215 7C14.4905 7 13.9583 6.78217 13.525 6.3465C13.0917 5.91083 12.875 5.3775 12.875 4.7465C12.875 4.1155 13.0928 3.58333 13.5285 3.15C13.9642 2.71667 14.4975 2.5 15.1285 2.5C15.7595 2.5 16.2917 2.71783 16.725 3.1535C17.1583 3.58917 17.375 4.1225 17.375 4.7535C17.375 5.3845 17.1572 5.91667 16.7215 6.35C16.2858 6.78333 15.7525 7 15.1215 7ZM19.7465 11.25C19.1155 11.25 18.5833 11.0322 18.15 10.5965C17.7167 10.1608 17.5 9.6275 17.5 8.9965C17.5 8.3655 17.7178 7.83333 18.1535 7.4C18.5892 6.96667 19.1225 6.75 19.7535 6.75C20.3845 6.75 20.9167 6.96783 21.35 7.4035C21.7833 7.83917 22 8.3725 22 9.0035C22 9.6345 21.7822 10.1667 21.3465 10.6C20.9108 11.0333 20.3775 11.25 19.7465 11.25ZM6.65 21.5C5.95 21.5 5.375 21.2372 4.925 20.7117C4.475 20.1864 4.25 19.5658 4.25 18.85C4.25 18.15 4.4625 17.5292 4.8875 16.9875C5.3125 16.4458 5.76667 15.925 6.25 15.425C6.61667 15.0583 6.95833 14.6708 7.275 14.2625C7.59167 13.8542 7.89167 13.4333 8.175 13C8.65833 12.2667 9.2 11.5833 9.8 10.95C10.4 10.3167 11.1333 10 12 10C12.8667 10 13.6042 10.3167 14.2125 10.95C14.8208 11.5833 15.3667 12.275 15.85 13.025C16.1333 13.4583 16.4292 13.875 16.7375 14.275C17.0458 14.675 17.3833 15.0583 17.75 15.425C18.2333 15.925 18.6875 16.4458 19.1125 16.9875C19.5375 17.5292 19.75 18.15 19.75 18.85C19.75 19.5658 19.525 20.1864 19.075 20.7117C18.625 21.2372 18.05 21.5 17.35 21.5C16.45 21.5 15.5583 21.425 14.675 21.275C13.7917 21.125 12.9 21.05 12 21.05C11.1 21.05 10.2083 21.125 9.325 21.275C8.44167 21.425 7.55 21.5 6.65 21.5Z" fill="white"/>
</svg>
