<svg width="25" height="25" viewBox="0 0 25 25" fill="none" xmlns="http://www.w3.org/2000/svg">
<path d="M8.65 21.5L2.5 15.35C2.33333 15.1833 2.20833 15 2.125 14.8C2.04167 14.6 2 14.3917 2 14.175C2 13.9583 2.04167 13.75 2.125 13.55C2.20833 13.35 2.33333 13.1667 2.5 13L8.25 7.275L5.6 4.625L7.15 3L17.15 13C17.3167 13.1667 17.4375 13.35 17.5125 13.55C17.5875 13.75 17.625 13.9583 17.625 14.175C17.625 14.3917 17.5875 14.6 17.5125 14.8C17.4375 15 17.3167 15.1833 17.15 15.35L11 21.5C10.8333 21.6667 10.65 21.7917 10.45 21.875C10.25 21.9583 10.0417 22 9.825 22C9.60833 22 9.4 21.9583 9.2 21.875C9 21.7917 8.81667 21.6667 8.65 21.5ZM9.825 8.85L4.475 14.2H15.175L9.825 8.85ZM19.8 22C19.2 22 18.6917 21.7875 18.275 21.3625C17.8583 20.9375 17.65 20.4167 17.65 19.8C17.65 19.35 17.7625 18.925 17.9875 18.525C18.2125 18.125 18.4667 17.7333 18.75 17.35L19.8 16L20.9 17.35C21.1667 17.7333 21.4167 18.125 21.65 18.525C21.8833 18.925 22 19.35 22 19.8C22 20.4167 21.7833 20.9375 21.35 21.3625C20.9167 21.7875 20.4 22 19.8 22Z" fill="#21D19F"/>
</svg>
