<svg width="13" height="13" viewBox="0 0 13 13" fill="none" xmlns="http://www.w3.org/2000/svg">
<path d="M1.99609 12.5991C1.68672 12.5991 1.42187 12.489 1.20156 12.2687C0.98125 12.0483 0.871094 11.7835 0.871094 11.4741V3.22412C0.871094 2.91048 0.980469 2.64193 1.19922 2.4185C1.41797 2.19516 1.68359 2.0887 1.99609 2.09912H7.40234L6.27734 3.22412H1.99609V11.4741H10.2461V7.19287L11.3711 6.06787V11.4741C11.3711 11.7835 11.2609 12.0483 11.0406 12.2687C10.8203 12.489 10.5555 12.5991 10.2461 12.5991H1.99609ZM4.62109 8.84912V6.4585L10.1523 0.927246C10.2669 0.812663 10.3919 0.729329 10.5273 0.677246C10.6628 0.625163 10.8008 0.599121 10.9414 0.599121C11.0914 0.599121 11.2344 0.625163 11.3703 0.677246C11.5063 0.729329 11.6312 0.811517 11.7452 0.923809L12.543 1.72412C12.6576 1.8387 12.7409 1.96464 12.793 2.10193C12.8451 2.23923 12.8711 2.37891 12.8711 2.521C12.8711 2.66329 12.8449 2.80324 12.7927 2.94084C12.7404 3.07834 12.6571 3.20402 12.543 3.31787L7.01172 8.84912H4.62109ZM5.74609 7.72412H6.54297L10.1523 4.11475L9.76172 3.7085L9.35547 3.31787L5.74609 6.92725V7.72412Z" fill="#21D19F"/>
</svg>
